HIERARCHY
ROOT newVegas:Hips
{
	OFFSET 0.000000 96.479958 0.000000
	CHANNELS 6 Xposition Yposition Zposition Xrotation Yrotation Zrotation
	JOINT newVegas:Pelvis
	{
		OFFSET 0.000000 0.000000 0.000000
		CHANNELS 3 Xrotation Yrotation Zrotation
		JOINT newVegas:LeftUpLeg
		{
			OFFSET 18.735201 -5.666702 -4.541200
			CHANNELS 3 Xrotation Yrotation Zrotation
			JOINT newVegas:LeftLeg
			{
				OFFSET -0.021200 -31.938179 0.493100
				CHANNELS 3 Xrotation Yrotation Zrotation
				JOINT newVegas:LeftFoot
				{
					OFFSET 0.021200 -31.938179 -4.336299
					CHANNELS 3 Xrotation Yrotation Zrotation
					JOINT newVegas:LeftToeBase
					{
						OFFSET 0.943001 -26.722000 15.023500
						CHANNELS 3 Xrotation Yrotation Zrotation
						End Site
						{
							OFFSET 0.000000 30.670183 0.000000
						}
					}
				}
				JOINT newVegas:Left_PantLeg
				{
					OFFSET 0.663870 -9.044666 -1.108900
					CHANNELS 3 Xrotation Yrotation Zrotation
					End Site
					{
						OFFSET 1.415995 20.635357 0.000000
					}
				}
			}
		}
		JOINT newVegas:RightUpLeg
		{
			OFFSET -18.735201 -5.666702 -4.541200
			CHANNELS 3 Xrotation Yrotation Zrotation
			JOINT newVegas:RightLeg
			{
				OFFSET 0.018946 -31.938133 0.493100
				CHANNELS 3 Xrotation Yrotation Zrotation
				JOINT newVegas:RightFoot
				{
					OFFSET -0.018946 -31.938126 -4.336299
					CHANNELS 3 Xrotation Yrotation Zrotation
					JOINT newVegas:RightToeBase
					{
						OFFSET -0.943001 -26.722004 15.023500
						CHANNELS 3 Xrotation Yrotation Zrotation
						End Site
						{
							OFFSET 0.000000 30.670187 0.000000
						}
					}
				}
				JOINT newVegas:Right_PantLeg
				{
					OFFSET -0.661674 -9.044716 -1.108900
					CHANNELS 3 Xrotation Yrotation Zrotation
					End Site
					{
						OFFSET -1.415958 20.635269 0.000000
					}
				}
			}
		}
	}
	JOINT newVegas:Spine
	{
		OFFSET 0.000000 10.199997 -0.299500
		CHANNELS 3 Xrotation Yrotation Zrotation
		JOINT newVegas:Spine1
		{
			OFFSET 0.000000 11.900002 -1.516600
			CHANNELS 3 Xrotation Yrotation Zrotation
			JOINT newVegas:Spine2
			{
				OFFSET 0.000000 13.600006 -2.842500
				CHANNELS 3 Xrotation Yrotation Zrotation
				JOINT newVegas:Neck
				{
					OFFSET 0.000000 9.624100 -2.890100
					CHANNELS 3 Xrotation Yrotation Zrotation
					JOINT newVegas:Head
					{
						OFFSET 0.000000 14.068802 -1.351900
						CHANNELS 3 Xrotation Yrotation Zrotation
						JOINT newVegas:Hair_Back
						{
							OFFSET 0.000000 3.231903 -17.524799
							CHANNELS 3 Xrotation Yrotation Zrotation
							End Site
							{
								OFFSET 0.000000 19.849884 0.000000
							}
						}
						JOINT newVegas:Hair_Front
						{
							OFFSET 0.000000 31.260406 4.573800
							CHANNELS 3 Xrotation Yrotation Zrotation
							JOINT newVegas:Hair_Front1
							{
								OFFSET 0.000000 2.284103 11.993300
								CHANNELS 3 Xrotation Yrotation Zrotation
								JOINT newVegas:Hair_Front2
								{
									OFFSET 0.000000 2.284103 11.993300
									CHANNELS 3 Xrotation Yrotation Zrotation
									End Site
									{
										OFFSET 0.000000 12.208862 0.000000
									}
								}
							}
						}
						JOINT newVegas:Jowel
						{
							OFFSET 0.000000 -7.458206 6.864100
							CHANNELS 3 Xrotation Yrotation Zrotation
							End Site
							{
								OFFSET 0.000000 19.849884 0.000000
							}
						}
					}
				}
				JOINT newVegas:LeftShoulder
				{
					OFFSET 15.263000 10.923401 -0.547700
					CHANNELS 3 Xrotation Yrotation Zrotation
					JOINT newVegas:LeftArm
					{
						OFFSET 25.438599 -2.830597 -13.032500
						CHANNELS 3 Xrotation Yrotation Zrotation
						JOINT newVegas:LeftForeArm
						{
							OFFSET 29.960503 0.000000 0.000000
							CHANNELS 3 Xrotation Yrotation Zrotation
							JOINT newVegas:LeftHand
							{
								OFFSET 27.849251 0.000000 0.000000
								CHANNELS 3 Xrotation Yrotation Zrotation
								JOINT newVegas:LeftHandThumb1
								{
									OFFSET 4.487587 -3.305161 6.305391
									CHANNELS 3 Xrotation Yrotation Zrotation
									JOINT newVegas:LeftHandThumb2
									{
										OFFSET 5.480453 -3.164139 3.164143
										CHANNELS 3 Xrotation Yrotation Zrotation
										JOINT newVegas:LeftHandThumb3
										{
											OFFSET 5.159721 -2.978973 2.978967
											CHANNELS 3 Xrotation Yrotation Zrotation
											End Site
											{
												OFFSET 2.494507 5.926697 1.738678
											}
										}
									}
								}
								JOINT newVegas:LeftHandIndex1
								{
									OFFSET 18.578728 -0.527832 5.208049
									CHANNELS 3 Xrotation Yrotation Zrotation
									JOINT newVegas:LeftHandIndex2
									{
										OFFSET 3.192009 0.000000 0.000000
										CHANNELS 3 Xrotation Yrotation Zrotation
										JOINT newVegas:LeftHandIndex3
										{
											OFFSET 3.835129 0.000000 0.000000
											CHANNELS 3 Xrotation Yrotation Zrotation
											End Site
											{
												OFFSET -0.034599 3.816971 0.371180
											}
										}
									}
								}
								JOINT newVegas:LeftHandMiddle1
								{
									OFFSET 18.476105 0.000000 0.000000
									CHANNELS 3 Xrotation Yrotation Zrotation
									JOINT newVegas:LeftHandMiddle2
									{
										OFFSET 3.324875 0.000000 0.000000
										CHANNELS 3 Xrotation Yrotation Zrotation
										JOINT newVegas:LeftHandMiddle3
										{
											OFFSET 4.596550 0.000000 0.000000
											CHANNELS 3 Xrotation Yrotation Zrotation
											End Site
											{
												OFFSET 0.057701 4.578827 0.399218
											}
										}
									}
								}
								JOINT newVegas:LeftHandRing1
								{
									OFFSET 17.732719 0.121887 -4.201567
									CHANNELS 3 Xrotation Yrotation Zrotation
									JOINT newVegas:LeftHandRing2
									{
										OFFSET 2.733170 0.000000 0.000000
										CHANNELS 3 Xrotation Yrotation Zrotation
										JOINT newVegas:LeftHandRing3
										{
											OFFSET 3.178268 0.000000 0.000000
											CHANNELS 3 Xrotation Yrotation Zrotation
											End Site
											{
												OFFSET 0.119102 3.170624 0.185394
											}
										}
									}
								}
								JOINT newVegas:LeftHandPinky1
								{
									OFFSET 15.989624 -0.606689 -7.535461
									CHANNELS 3 Xrotation Yrotation Zrotation
									JOINT newVegas:LeftHandPinky2
									{
										OFFSET 2.538986 0.000000 0.000000
										CHANNELS 3 Xrotation Yrotation Zrotation
										JOINT newVegas:LeftHandPinky3
										{
											OFFSET 2.593102 0.000000 0.000000
											CHANNELS 3 Xrotation Yrotation Zrotation
											End Site
											{
												OFFSET -0.150902 2.584198 0.152708
											}
										}
									}
								}
							}
							JOINT newVegas:Left_Sleeve
							{
								OFFSET 0.267448 -0.649796 0.577675
								CHANNELS 3 Xrotation Yrotation Zrotation
								End Site
								{
									OFFSET 0.000000 15.991241 0.000000
								}
							}
							JOINT newVegas:Left_CapeC
							{
								OFFSET 15.715958 -8.608795 -6.935905
								CHANNELS 3 Xrotation Yrotation Zrotation
								JOINT newVegas:Left_CapeC1
								{
									OFFSET 0.000000 -8.688499 0.000000
									CHANNELS 3 Xrotation Yrotation Zrotation
									End Site
									{
										OFFSET 0.000000 8.688499 0.000000
									}
								}
							}
						}
						JOINT newVegas:Left_CapeB
						{
							OFFSET 26.118385 -8.608795 -7.079235
							CHANNELS 3 Xrotation Yrotation Zrotation
							JOINT newVegas:Left_CapeB1
							{
								OFFSET 0.000000 -8.688499 0.000000
								CHANNELS 3 Xrotation Yrotation Zrotation
								End Site
								{
									OFFSET 0.000000 8.688499 0.000000
								}
							}
						}
						JOINT newVegas:Left_CapeA
						{
							OFFSET 5.115639 -8.608795 -10.395809
							CHANNELS 3 Xrotation Yrotation Zrotation
							JOINT newVegas:Left_CapeA1
							{
								OFFSET 0.000000 -8.688499 0.000000
								CHANNELS 3 Xrotation Yrotation Zrotation
								End Site
								{
									OFFSET 0.000000 8.688499 0.000000
								}
							}
						}
					}
				}
				JOINT newVegas:RightShoulder
				{
					OFFSET -15.263000 10.923401 -0.547700
					CHANNELS 3 Xrotation Yrotation Zrotation
					JOINT newVegas:RightArm
					{
						OFFSET -25.438599 -2.830597 -13.032500
						CHANNELS 3 Xrotation Yrotation Zrotation
						JOINT newVegas:RightForeArm
						{
							OFFSET -29.960503 0.000000 0.000000
							CHANNELS 3 Xrotation Yrotation Zrotation
							JOINT newVegas:RightHand
							{
								OFFSET -27.849251 0.000000 0.000000
								CHANNELS 3 Xrotation Yrotation Zrotation
								JOINT newVegas:RightHandThumb1
								{
									OFFSET -4.487587 -3.305161 6.305391
									CHANNELS 3 Xrotation Yrotation Zrotation
									JOINT newVegas:RightHandThumb2
									{
										OFFSET -5.480453 -3.164139 3.164143
										CHANNELS 3 Xrotation Yrotation Zrotation
										JOINT newVegas:RightHandThumb3
										{
											OFFSET -5.159721 -2.978973 2.978967
											CHANNELS 3 Xrotation Yrotation Zrotation
											End Site
											{
												OFFSET -2.494507 5.926697 1.738678
											}
										}
									}
								}
								JOINT newVegas:RightHandIndex1
								{
									OFFSET -18.578728 -0.527832 5.208049
									CHANNELS 3 Xrotation Yrotation Zrotation
									JOINT newVegas:RightHandIndex2
									{
										OFFSET -3.192009 0.000000 0.000000
										CHANNELS 3 Xrotation Yrotation Zrotation
										JOINT newVegas:RightHandIndex3
										{
											OFFSET -3.835129 0.000000 0.000000
											CHANNELS 3 Xrotation Yrotation Zrotation
											End Site
											{
												OFFSET 0.034599 3.816971 0.371180
											}
										}
									}
								}
								JOINT newVegas:RightHandMiddle1
								{
									OFFSET -18.476105 0.000000 0.000000
									CHANNELS 3 Xrotation Yrotation Zrotation
									JOINT newVegas:RightHandMiddle2
									{
										OFFSET -3.324875 0.000000 0.000000
										CHANNELS 3 Xrotation Yrotation Zrotation
										JOINT newVegas:RightHandMiddle3
										{
											OFFSET -4.596550 0.000000 0.000000
											CHANNELS 3 Xrotation Yrotation Zrotation
											End Site
											{
												OFFSET -0.057701 4.578827 0.399218
											}
										}
									}
								}
								JOINT newVegas:RightHandRing1
								{
									OFFSET -17.732719 0.121887 -4.201567
									CHANNELS 3 Xrotation Yrotation Zrotation
									JOINT newVegas:RightHandRing2
									{
										OFFSET -2.733170 0.000000 0.000000
										CHANNELS 3 Xrotation Yrotation Zrotation
										JOINT newVegas:RightHandRing3
										{
											OFFSET -3.178268 0.000000 0.000000
											CHANNELS 3 Xrotation Yrotation Zrotation
											End Site
											{
												OFFSET -0.119102 3.170624 0.185394
											}
										}
									}
								}
								JOINT newVegas:RightHandPinky1
								{
									OFFSET -15.989624 -0.606689 -7.535461
									CHANNELS 3 Xrotation Yrotation Zrotation
									JOINT newVegas:RightHandPinky2
									{
										OFFSET -2.538986 0.000000 0.000000
										CHANNELS 3 Xrotation Yrotation Zrotation
										JOINT newVegas:RightHandPinky3
										{
											OFFSET -2.593102 0.000000 0.000000
											CHANNELS 3 Xrotation Yrotation Zrotation
											End Site
											{
												OFFSET 0.150902 2.584198 0.152708
											}
										}
									}
								}
							}
							JOINT newVegas:Right_CapeC
							{
								OFFSET -15.715958 -8.608795 -6.935905
								CHANNELS 3 Xrotation Yrotation Zrotation
								JOINT newVegas:Right_CapeC1
								{
									OFFSET 0.000000 -8.688499 0.000000
									CHANNELS 3 Xrotation Yrotation Zrotation
									End Site
									{
										OFFSET 0.000000 8.688499 0.000000
									}
								}
							}
							JOINT newVegas:Right_Sleeve
							{
								OFFSET -0.267448 -0.649994 0.577675
								CHANNELS 3 Xrotation Yrotation Zrotation
								End Site
								{
									OFFSET 0.000000 15.991302 0.000000
								}
							}
						}
						JOINT newVegas:Right_CapeA
						{
							OFFSET -5.115540 -8.608795 -10.395824
							CHANNELS 3 Xrotation Yrotation Zrotation
							JOINT newVegas:Right_CapeA1
							{
								OFFSET 0.000000 -8.688499 0.000000
								CHANNELS 3 Xrotation Yrotation Zrotation
								End Site
								{
									OFFSET 0.000000 8.688499 0.000000
								}
							}
						}
						JOINT newVegas:Right_CapeB
						{
							OFFSET -26.118187 -8.608795 -7.079266
							CHANNELS 3 Xrotation Yrotation Zrotation
							JOINT newVegas:Right_CapeB1
							{
								OFFSET 0.000000 -8.688499 0.000000
								CHANNELS 3 Xrotation Yrotation Zrotation
								End Site
								{
									OFFSET 0.000000 8.688499 0.000000
								}
							}
						}
					}
				}
				JOINT newVegas:Left_Collar
				{
					OFFSET 18.625099 8.655502 8.828100
					CHANNELS 3 Xrotation Yrotation Zrotation
					JOINT newVegas:Left_Collar1
					{
						OFFSET 14.783401 10.540405 -1.259500
						CHANNELS 3 Xrotation Yrotation Zrotation
						End Site
						{
							OFFSET 0.000000 18.199875 0.000000
						}
					}
				}
				JOINT newVegas:Collar_Back
				{
					OFFSET 0.000000 15.630707 -20.132601
					CHANNELS 3 Xrotation Yrotation Zrotation
					End Site
					{
						OFFSET 0.000000 22.523010 0.000000
					}
				}
				JOINT newVegas:Left_Peck
				{
					OFFSET 17.239599 -5.132599 25.482599
					CHANNELS 3 Xrotation Yrotation Zrotation
					End Site
					{
						OFFSET 0.000000 22.523010 0.000000
					}
				}
				JOINT newVegas:Right_Peck
				{
					OFFSET -17.239599 -5.132202 25.482599
					CHANNELS 3 Xrotation Yrotation Zrotation
					End Site
					{
						OFFSET 0.000000 22.523010 0.000000
					}
				}
				JOINT newVegas:Right_Collar
				{
					OFFSET -18.625099 8.655792 8.828100
					CHANNELS 3 Xrotation Yrotation Zrotation
					JOINT newVegas:Right_Collar1
					{
						OFFSET -14.783401 10.539993 -1.259500
						CHANNELS 3 Xrotation Yrotation Zrotation
						End Site
						{
							OFFSET 0.000000 18.199631 0.000000
						}
					}
				}
			}
		}
		JOINT newVegas:Belly
		{
			OFFSET 0.000000 -6.540398 9.014299
			CHANNELS 3 Xrotation Yrotation Zrotation
			End Site
			{
				OFFSET 0.000000 11.566666 0.000000
			}
		}
	}
	JOINT newVegas:ElvisFacialAnim_Joint
	{
		OFFSET 1.000000 -95.330101 -8.825800
		CHANNELS 3 Xrotation Yrotation Zrotation
		End Site
		{
			OFFSET 0.000000 35.315800 0.000000
		}
	}
}
MOTION
Frames: 4
Frame Time: 0.033333
-2.729197 181.631638 387.579346 -271.236156 7.234622 2.219193 -0.000000 -0.000001 -0.000000 -94.297175 2.210926 9.024272 37.739196 3.335587 -2.781825 19.980194 -11.310842 -14.041976 -0.000001 -0.000000 -0.000000 0.000000 0.000000 -0.000000 -89.924543 5.962746 -6.236526 32.334191 -0.599072 -2.613900 6.092872 -0.251111 16.331681 -0.000001 0.000000 0.000001 -0.000000 -0.000000 -0.000000 12.245049 2.476494 2.089824 5.168704 0.342737 1.774617 5.167547 0.379708 1.767838 -8.602154 0.224584 -0.698517 -8.602142 0.224587 -0.698520 -0.000000 0.000000 -0.000000 -8.602143 0.224588 -0.698520 -8.602138 0.224585 -0.698518 -0.000001 0.000001 0.000000 -0.000000 0.000000 -0.000000 -0.048321 -7.554018 -27.255925 7.459506 9.675876 -40.825724 0.000011 -0.000004 -0.000003 -25.021660 2.678019 3.337216 -9.033782 -10.190359 12.694812 7.219108 21.874278 2.172013 0.000003 0.000002 0.000001 0.459679 0.380666 3.298341 0.254916 1.710950 -16.946871 -0.000006 -0.000001 -0.000001 0.096993 5.106159 -0.560462 0.240225 1.662039 -16.448204 0.000003 -0.000001 0.000000 0.599089 7.889908 -5.587355 0.246647 1.683552 -16.667454 -0.000001 -0.000002 -0.000001 0.462731 9.965908 -7.229334 0.181871 1.449885 -14.299556 0.000002 0.000000 -0.000002 0.000000 0.000000 0.000001 0.000000 0.000000 0.000001 0.000000 -0.000000 0.000001 0.000001 -0.000003 -0.000001 0.000000 -0.000003 -0.000001 0.000001 -0.000003 -0.000001 0.000001 -0.000003 -0.000001 0.517221 3.958160 25.729732 -23.145600 -13.429850 28.398890 -0.000006 -0.000003 0.000004 -8.766549 1.375777 -3.853480 -10.010604 11.131596 -11.689219 7.439019 -23.571842 -2.822548 0.000001 0.000000 0.000001 0.566377 -1.125143 -4.895013 0.205258 -1.368695 17.055503 0.000002 -0.000000 -0.000001 -0.021780 -6.011669 -1.215400 0.198486 -1.346475 16.770290 0.000001 0.000002 -0.000003 0.556031 -9.065300 4.140679 0.190766 -1.320627 16.438915 -0.000000 0.000001 -0.000000 -0.221749 -11.145411 4.320692 0.157915 -1.203724 14.947720 0.000000 0.000003 0.000004 -0.000000 0.000000 -0.000002 -0.000000 -0.000000 -0.000002 -0.000000 0.000001 -0.000002 0.000000 -0.000001 0.000001 -0.000000 0.000000 0.000001 0.000000 -0.000001 0.000001 -0.000000 -0.000000 0.000001 -0.000001 -0.000001 -0.000000 -0.000001 -0.000001 -0.000000 -0.000001 -0.000001 -0.000000 -0.000001 -0.000001 -0.000000 -0.000001 -0.000001 -0.000000 -0.000001 -0.000001 -0.000000 -0.000001 -0.000001 -0.000000 0.000001 0.000000 -0.000000 -0.000000 -0.000001 -0.000000 
-2.566099 165.027191 398.593323 -278.436978 6.312141 3.036305 -0.000000 -0.000000 -0.000000 -91.554335 2.982919 10.116320 29.926525 7.637969 -3.196767 18.069711 -11.666954 -18.457341 0.000001 0.000001 -0.000000 0.000001 -0.000000 0.000001 -95.723708 6.931898 -4.913032 33.686927 -0.651193 -3.284801 -1.200240 -0.785820 8.355967 -0.000000 0.000000 0.000000 0.000003 0.000001 -0.000001 13.678116 2.666488 2.580438 5.093985 0.217494 0.961058 5.093953 0.222795 0.959614 -7.703967 0.151629 -0.444888 -7.703986 0.151627 -0.444890 0.000000 0.000000 -0.000001 -7.703966 0.151625 -0.444891 -7.703986 0.151626 -0.444889 -0.000000 -0.000001 -0.000000 0.000000 0.000000 -0.000000 0.005569 -7.637203 -25.471341 6.292577 11.759032 -40.673971 -0.000008 -0.014931 0.000014 -31.119892 -2.359875 9.305952 -9.645921 -11.646635 11.751229 7.499576 24.025021 2.340087 -0.000002 -0.000003 -0.000007 0.352159 0.602694 4.882502 0.443025 2.236711 -22.404096 -0.000003 -0.000000 0.000001 0.104646 5.975732 -0.468537 0.412118 2.160310 -21.598796 -0.000003 -0.000001 -0.000001 0.863094 8.887388 -7.110455 0.419644 2.179194 -21.797365 -0.000002 -0.000001 0.000002 1.051409 11.025567 -8.392429 0.317431 1.903946 -18.928609 -0.000001 -0.000003 0.000001 -0.000000 -0.000001 -0.000002 -0.000000 -0.000001 -0.000002 -0.000000 -0.000001 -0.000002 0.000001 0.000001 0.000002 0.000001 0.000000 0.000002 0.000001 0.000001 0.000002 0.000001 0.000002 0.000002 0.245598 6.097096 24.409293 -27.873992 -8.536983 25.846245 -0.000006 0.018773 -0.000006 -12.112276 1.591469 -5.341105 -10.403823 13.186011 -11.114297 7.693090 -25.781591 -2.973296 0.000002 0.000000 -0.000002 0.367167 -1.106830 -6.138191 0.349339 -1.771341 22.310664 -0.000000 -0.000000 0.000001 -0.001693 -6.373449 -0.860562 0.333351 -1.731882 21.787677 0.000000 0.000000 0.000000 0.797703 -9.329553 6.038167 0.328233 -1.719079 21.618414 -0.000000 -0.000001 0.000001 0.728738 -11.284764 6.438126 0.267211 -1.556363 19.483314 0.000005 0.000003 0.000001 0.000000 -0.000000 0.000003 0.000000 -0.000000 0.000005 0.000000 -0.000000 0.000005 -0.000000 0.000002 -0.000002 0.000000 0.000003 -0.000001 -0.000000 0.000002 -0.000002 0.000001 0.000003 0.000001 -0.000000 -0.000000 -0.000000 -0.000000 -0.000000 -0.000000 -0.000000 -0.000000 -0.000000 -0.000000 -0.000000 -0.000000 -0.000000 -0.000000 -0.000000 -0.000000 -0.000000 -0.000000 -0.000000 -0.000000 -0.000000 0.000000 -0.000000 0.000000 -0.000000 -0.000000 -0.000000 
-2.309637 146.019653 409.302856 -287.454986 6.372395 4.278489 -0.000001 0.000000 0.000000 -86.242879 4.559049 9.885893 18.985368 7.194937 -3.305197 21.290294 -9.866340 -24.792888 0.000001 -0.000000 0.000000 -0.000000 0.000000 -0.000000 -99.239889 8.018268 -3.424511 35.917202 -2.386863 -4.790004 -9.089529 -0.019139 -0.920560 -0.000000 0.000000 -0.000000 0.000001 0.000000 -0.000000 15.154161 2.949461 2.535107 4.995427 0.165477 0.820423 4.995444 0.171947 0.818754 -6.473487 0.059609 -0.383837 -6.473453 0.059606 -0.383842 -0.000000 0.000001 -0.000000 -6.473461 0.059595 -0.383833 -6.473595 0.059646 -0.383843 -0.000002 -0.000001 -0.000000 -0.000000 0.000001 0.000000 -0.047359 -8.242242 -24.731174 4.206001 13.987013 -38.933574 0.000002 -16.753288 -0.000006 -31.554139 -9.485079 16.112003 -10.302493 -13.163995 11.591225 7.824795 26.539322 2.525380 0.000002 0.000002 -0.000004 0.281104 0.635262 6.722545 0.698898 2.776871 -28.249369 -0.000001 -0.000001 0.000001 0.094878 6.894740 -0.161984 0.648098 2.680279 -27.182457 0.000002 0.000000 0.000000 1.206120 10.095091 -8.573417 0.654919 2.693455 -27.327261 -0.000002 -0.000001 0.000000 1.682891 12.395772 -9.692173 0.502240 2.375140 -23.875789 0.000002 0.000002 0.000002 0.000001 -0.000000 -0.000002 0.000001 -0.000000 -0.000002 0.000000 -0.000000 -0.000002 0.000002 -0.000003 -0.000002 0.000002 -0.000002 -0.000004 0.000002 -0.000003 -0.000002 0.000001 -0.000002 -0.000002 0.137704 7.538934 22.215750 -33.231025 -4.433923 23.915255 0.000013 5.830999 0.000004 -12.273561 3.588265 -7.962433 -10.867691 15.113943 -11.214640 7.985394 -28.340734 -3.137632 0.000000 -0.000001 -0.000002 0.246467 -0.950433 -7.731488 0.549838 -2.197114 28.096717 0.000002 0.000001 -0.000003 -0.005343 -6.932940 -0.845563 0.520179 -2.140679 27.313025 0.000000 0.000001 -0.000000 1.096674 -10.025277 7.768381 0.515585 -2.131753 27.189670 0.000001 -0.000003 -0.000001 1.491697 -12.040778 8.381665 0.415239 -1.924041 24.354646 0.000002 0.000002 -0.000001 -0.000000 -0.000003 0.000001 -0.000000 -0.000004 0.000003 -0.000000 -0.000004 0.000003 0.000002 -0.000001 0.000002 0.000001 0.000000 0.000004 0.000002 -0.000001 0.000002 0.000002 0.000000 0.000005 0.000001 0.000000 -0.000000 0.000001 0.000000 -0.000000 0.000001 0.000000 -0.000000 0.000001 0.000000 -0.000000 0.000001 0.000000 -0.000000 0.000001 0.000000 -0.000000 0.000001 0.000000 -0.000000 -0.000000 0.000000 0.000001 -0.000001 0.000000 0.000000 
-2.075524 123.797966 420.522491 -298.618657 6.316225 5.221873 -0.000001 -0.000000 -0.000000 -77.076847 5.695800 9.529158 0.246372 8.757622 -3.320144 36.169519 -12.549427 -27.387655 -0.000002 0.000000 -0.000001 -0.000001 0.000000 -0.000000 -101.776034 9.235283 -2.948857 41.470323 -7.043967 -5.789177 -13.362047 0.680994 -4.392582 0.000000 -0.000000 -0.000000 0.000000 0.000000 -0.000000 14.580740 3.935306 1.821347 5.890767 0.365962 1.339737 5.889295 0.398404 1.333066 -4.669558 -0.137520 -0.218457 -4.669540 -0.137519 -0.218457 -0.000000 0.000000 -0.000000 -4.669568 -0.137528 -0.218461 -4.669565 -0.137525 -0.218456 0.000001 0.000000 0.000000 -0.000000 0.000000 -0.000000 -0.038050 -8.846825 -22.859055 0.664069 10.299404 -35.769585 -0.000007 -35.096521 -0.000006 -24.584528 -12.160587 20.178515 -10.441586 -13.648335 11.486513 7.927994 27.340450 2.581905 -0.000001 0.000002 -0.000004 0.242342 0.677810 7.308137 0.791036 2.941694 -30.096197 -0.000000 0.000000 0.000001 0.088021 7.181191 -0.041225 0.733696 2.840598 -28.959722 0.000001 -0.000004 0.000001 1.322452 10.458517 -9.020836 0.737423 2.847306 -29.034571 0.000001 0.000001 -0.000001 1.741854 12.804843 -10.007268 0.568959 2.520345 -25.437638 0.000000 -0.000003 -0.000002 0.000000 -0.000004 0.000002 0.000000 -0.000004 0.000002 0.000000 -0.000005 0.000001 -0.000000 0.000001 0.000001 0.000000 0.000001 -0.000002 -0.000000 0.000001 0.000001 -0.000000 0.000001 0.000001 0.193214 8.026383 19.511031 -37.193334 -0.369781 22.806905 0.000011 16.454774 0.000002 -9.854485 6.617804 -12.419948 -10.947518 15.749016 -11.169372 8.079029 -29.162985 -3.188091 0.000001 0.000000 -0.000002 0.203392 -0.872109 -8.192689 0.624558 -2.331554 29.987556 -0.000000 -0.000000 -0.000002 -0.003012 -7.073375 -0.804766 0.587901 -2.266902 29.073964 -0.000000 0.000000 -0.000001 1.194172 -10.192695 8.336650 0.582521 -2.257202 28.937527 -0.000000 -0.000001 0.000000 1.631778 -12.256517 9.024203 0.466015 -2.032427 25.825370 0.000001 -0.000000 0.000001 -0.000002 0.000001 -0.000001 -0.000002 -0.000001 0.000000 -0.000002 0.000001 -0.000001 -0.000001 0.000002 -0.000000 -0.000001 0.000002 -0.000001 -0.000001 0.000002 -0.000000 -0.000001 0.000002 -0.000002 0.000000 -0.000000 0.000000 0.000000 -0.000000 0.000000 0.000000 -0.000000 0.000000 0.000000 -0.000000 0.000000 0.000000 -0.000000 0.000000 0.000000 -0.000000 0.000000 0.000000 -0.000000 0.000000 0.000000 -0.000000 0.000000 -0.000001 -0.000000 -0.000000 
